<svg xmlns="http://www.w3.org/2000/svg" xmlns:xlink="http://www.w3.org/1999/xlink">

<symbol id="dribbble" fill-rule="evenodd" clip-rule="evenodd" stroke-linejoin="round" stroke-miterlimit="1.414"><path d="M8 16c-4.41 0-8-3.59-8-8s3.59-8 8-8 8 3.59 8 8-3.59 8-8 8zm6.747-6.905c-.234-.074-2.115-.635-4.257-.292.894 2.456 1.258 4.456 1.328 4.872 1.533-1.037 2.624-2.68 2.93-4.58zM10.67 14.3c-.102-.6-.5-2.688-1.46-5.18l-.044.014C5.312 10.477 3.93 13.15 3.806 13.4c1.158.905 2.614 1.444 4.194 1.444.947 0 1.85-.194 2.67-.543zm-7.747-1.72c.155-.266 2.03-3.37 5.555-4.51.09-.03.18-.056.27-.08-.173-.39-.36-.778-.555-1.16-3.413 1.02-6.723.977-7.023.97l-.003.208c0 1.755.665 3.358 1.756 4.57zM1.31 6.61c.307.005 3.122.017 6.318-.832-1.132-2.012-2.353-3.705-2.533-3.952-1.912.902-3.34 2.664-3.784 4.785zM6.4 1.368c.188.253 1.43 1.943 2.548 4 2.43-.91 3.46-2.293 3.582-2.468C11.323 1.827 9.736 1.176 8 1.176c-.55 0-1.087.066-1.6.19zm6.89 2.322c-.145.194-1.29 1.662-3.816 2.694.16.325.31.656.453.99.05.117.1.235.147.352 2.274-.286 4.533.172 4.758.22-.015-1.613-.59-3.094-1.543-4.257z"/></symbol>

<symbol id="fcc" xmlns="http://www.w3.org/2000/svg" width="746.757" height="515.085" viewBox="0 0 700.084 482.892" aria-hidden="true">
<path d="M117.513 482.162c-12.148-2.9-29.728-18.152-49.222-42.704-39.57-49.84-61.057-105.74-67.385-175.313-1.218-13.39-1.205-47.269.022-59.666 5.786-58.453 26.24-108.792 63.77-156.944C76.193 32.789 95.24 13.472 104.363 7.31c12.908-8.718 21.033-9.423 28.83-2.501 3.18 2.823 3.912 4.136 4.319 7.755.767 6.814-2.726 12.138-18.968 28.914C95.847 64.92 85.376 77.97 73.777 97.27 47.44 141.096 36.17 187.185 37.784 244.458c.861 30.513 4.126 53.004 11.326 78.02 6.485 22.53 14.269 40.696 25.925 60.506 11.704 19.89 21.539 32.474 41.205 52.724 17.254 17.765 21.54 23.936 21.54 31.012 0 7.039-4.97 13.405-11.983 15.353-3.875 1.076-4.138 1.079-8.284.089zm455.44.266c-3.671-.78-10.237-7.841-10.978-11.807-1.193-6.39 2.609-12.082 20.332-30.439 8.722-9.033 19.453-20.907 23.847-26.387 32.153-40.091 50.016-84.701 54.782-136.805 1.469-16.063.71-57.448-1.34-72.967-4.29-32.507-12.212-59.101-25.931-87.065-13.128-26.758-26.71-45.737-49.649-69.375-15.404-15.874-19.944-21.67-21.493-27.436-1.518-5.652-.427-9.848 3.812-14.664 5.815-6.605 12.456-7.195 22.85-2.027 12.582 6.255 28.887 22.59 47.813 47.9 38.078 50.921 57.717 106.942 62.437 178.102 4.01 60.461-10.657 121.663-41.304 172.348-21.154 34.986-53.43 70.837-70.615 78.439-4.492 1.987-10.937 2.953-14.562 2.183zM192.87 445.561c-10.287-3.119-16.25-13.4-13.77-23.741 1.534-6.395 7.953-12.97 14.198-14.542 6.292-1.584 331.733-1.584 338.024 0 6.438 1.62 12.762 8.216 14.17 14.775 1.843 8.597-2.02 17.395-9.526 21.695l-3.968 2.272-168.281.16c-92.555.087-169.436-.192-170.847-.62zm128.19-79.11c-31.252-11.367-57.254-33.52-70.564-60.118-7.4-14.788-11.695-32.697-11.692-48.75.005-21.703 8.491-42.384 34.347-83.696 19.257-30.771 22.538-36.378 28.2-48.197 7.536-15.726 10.02-25.067 10.178-38.264.15-12.61-1.74-20.093-7.548-29.88-4.123-6.947-13.4-17.404-17.166-19.352-6.14-3.175-7.413-7.488-3.053-10.345 6.896-4.518 25.735-1.652 43.044 6.547 19.585 9.277 34.02 22.599 43.42 40.07 7.245 13.466 10.166 23.785 15.08 53.273 5.453 32.722 10.858 43.104 21.789 41.848 5.792-.666 9.407-2.864 11.846-7.204 3.885-6.913 2.22-16.375-5.638-32.034-6.42-12.793-6.023-16.659 1.507-14.667 3.9 1.031 16.557 11.369 25.32 20.68 21.924 23.299 32.835 44.465 38.082 73.877 2.752 15.426 2.981 41.007.487 54.375-3.147 16.865-9.524 32.784-18.588 46.398-10.107 15.18-31.19 34.386-46.519 42.376-6.922 3.608-9.325 3.827-12.718 1.158-4.22-3.32-3.329-5.628 6-15.538 14.018-14.889 21.174-25.474 25.326-37.457 6.406-18.489 3.217-44.265-7.508-60.694-4.442-6.805-10.953-12.806-13.895-12.806-1.61 0-1.343 2.125 1.643 13.062 1.046 3.832 1.902 8.516 1.902 10.408 0 10.008-14.126 17.263-26.57 13.646-10.111-2.94-14.569-12.11-13.23-27.22.414-4.67.785-13.154.823-18.854.068-10.052-.029-10.56-3.21-16.836-6.203-12.232-20.548-24.83-28.271-24.83-3.33 0-3.605.2-3.605 2.649 0 1.643.924 3.511 2.435 4.921 8.001 7.469 9.507 22.772 3.57 36.282-3.669 8.35-7.806 13.079-21.937 25.074-18.592 15.782-24.583 23.297-28.299 35.496-1.719 5.644-1.896 7.94-1.412 18.282.812 17.361 4.35 28.87 12.62 41.048 6.35 9.35 13.785 15.283 23.883 19.056 4.856 1.814 5.39 2.283 5.39 4.726 0 2.832-2.153 4.693-5.329 4.606-.936-.026-5.499-1.428-10.14-3.116z"/></symbol>

<symbol id="github" fill-rule="evenodd" clip-rule="evenodd" stroke-linejoin="round" stroke-miterlimit="1.414" height="24" viewBox="0 0 16 16" width="24" aria-hidden="true">
<path fill-rule="evenodd" d="M8 0C3.58 0 0 3.58 0 8c0 3.54 2.29 6.53 5.47 7.59.4.07.55-.17.55-.38 0-.19-.01-.82-.01-1.49-2.01.37-2.53-.49-2.69-.94-.09-.23-.48-.94-.82-1.13-.28-.15-.68-.52-.01-.53.63-.01 1.08.58 1.23.82.72 1.21 1.87.87 2.33.66.07-.52.28-.87.51-1.07-1.78-.2-3.64-.89-3.64-3.95 0-.87.31-1.59.82-2.15-.08-.2-.36-1.02.08-2.12 0 0 .67-.21 2.2.82.64-.18 1.32-.27 2-.27.68 0 1.36.09 2 .27 1.53-1.04 2.2-.82 2.2-.82.44 1.1.16 1.92.08 2.12.51.56.82 1.27.82 2.15 0 3.07-1.87 3.75-3.65 3.95.29.25.54.73.54 1.48 0 1.07-.01 1.93-.01 2.2 0 .21.15.46.55.38A8.013 8.013 0 0 0 16 8c0-4.42-3.58-8-8-8z"></path></symbol>

<symbol id="linkedin" fill-rule="evenodd" clip-rule="evenodd" stroke-linejoin="round" stroke-miterlimit="1.414"><path d="M13.632 13.635h-2.37V9.922c0-.886-.018-2.025-1.234-2.025-1.235 0-1.424.964-1.424 1.96v3.778h-2.37V6H8.51v1.04h.03c.318-.6 1.092-1.233 2.247-1.233 2.4 0 2.845 1.58 2.845 3.637v4.188zM3.558 4.955c-.762 0-1.376-.617-1.376-1.377 0-.758.614-1.375 1.376-1.375.76 0 1.376.617 1.376 1.375 0 .76-.617 1.377-1.376 1.377zm1.188 8.68H2.37V6h2.376v7.635zM14.816 0H1.18C.528 0 0 .516 0 1.153v13.694C0 15.484.528 16 1.18 16h13.635c.652 0 1.185-.516 1.185-1.153V1.153C16 .516 15.467 0 14.815 0z" fill-rule="nonzero"/></symbol>

<symbol id="rss" fill-rule="evenodd" clip-rule="evenodd" stroke-linejoin="round" stroke-miterlimit="1.414"><path d="M12.8 16C12.8 8.978 7.022 3.2 0 3.2V0c8.777 0 16 7.223 16 16h-3.2zM2.194 11.61c1.21 0 2.195.985 2.195 2.196 0 1.21-.99 2.194-2.2 2.194C.98 16 0 15.017 0 13.806c0-1.21.983-2.195 2.194-2.195zM10.606 16h-3.11c0-4.113-3.383-7.497-7.496-7.497v-3.11c5.818 0 10.606 4.79 10.606 10.607z"/></symbol>

<symbol id="stackoverflow" class="svg-icon" xmlns="http://www.w3.org/2000/svg" fill-rule="evenodd" clip-rule="evenodd" stroke-linejoin="round" stroke-miterlimit="1.414"><path d="M12.658 14.577v-4.27h1.423V16H1.23v-5.693h1.42v4.27h10.006zm-8.583-1.423h7.16V11.73h-7.16v1.424zm.173-3.235l6.987 1.46.3-1.38L4.55 8.54l-.302 1.38zm.906-3.37l6.47 3.02.602-1.3-6.47-3.02-.602 1.29zm1.81-3.19l5.478 4.57.906-1.08L7.87 2.28l-.9 1.078zM10.502 0L9.338.863l4.27 5.735 1.164-.862L10.5 0z"/></symbol>

<symbol id="treehouse" xmlns="http://www.w3.org/2000/svg" viewBox="210.7 336.7 120 135" width="90px" aria-hidden="true">
    <path d="M319.4,362.3c-4.3-2.5-11.3,1.4-15.5,8.8l-7.6,13.2c-2.8,5.5-2.4,12.1,1.2,17.2l0.3,0.3
            c3.5,5.1,8.3,9.7,9.8,11.4c0.9,0.9,1.6,2.2,2,3.5c1.3,4.6-1.4,9.4-6,10.6c-4.6,1.3-9.4-1.4-10.6-6c-0.3-1.2-0.4-2.4-0.3-3.4
            c0.3-2-0.4-5-3.1-8s-8.3,2.8-10.1,8.6l-0.1,0.3c-1.8,5.9-2.9,11-2.6,11.5c0.3,0.3,0.4,0.7,0.5,0.9c2.6,5,0.8,10.9-3.9,13.4
            c-4.7,2.5-10.6,0.8-13.2-4.1c-2.5-4.7-0.8-10.6,4.1-13.2c0.3-0.1,0.4-0.3,0.7-0.3c0.4-0.1,1.4-2.6,2.2-5.6c0.9-2.9,1.6-5.4,1.6-5.4
            c0.1-0.3,0.1-0.7,0.3-0.9l4.8-17.2l-5.1,10.6c-0.7-2-1.6-2.1-3.8-0.5c-1.3,0.9-3.5,2.9-4.6,3.5c-2,1.4-3.7,4.2-4.6,6
            c-0.5,1-1.3,2-2.2,2.8c-3.7,3-9,2.5-12.1-1.3c-3-3.7-2.5-9,1.3-12.1c1-0.9,2.4-1.4,3.5-1.7c2.2-0.5,9.6-5,14-8.1
            c0.8-0.5,1.4-1,2-1.6l11.8-9l-10.3,5.6c0,0-1-0.1-2.4,0c-3.8,0.4-7.7,0.9-8.4,1.8c-0.4,0.5-0.9,1-1.6,1.4c-3.4,2.5-8.3,1.7-10.7-1.7
            c-2.5-3.4-1.7-8.3,1.7-10.7c1.4-1,3-1.4,4.7-1.4c2.8,0.1,10.1,1.6,16.1,0.5l1.6-0.3c6-1,13.4-6.4,16.2-11.8c0,0,2.9-5,6.3-11.1
            c3.5-6.2,3.3-12.8-0.5-15.1l-6.9-3.9c-3.5-2-9.2-2-12.7,0l-47.7,26.9c-3.4,2-6.3,6.9-6.3,10.9v52.5c0,4.1,2.9,8.9,6.3,10.9
            l47.7,26.9c3.5,2,9.2,2,12.7,0l47.6-26.9c3.5-2,6.3-6.8,6.3-10.9v-52.5c0-4.1-2.9-8.9-6.3-10.9C327.2,366.8,323.7,364.8,319.4,362.3
            z" />
</symbol>


</svg>
